<svg width="19" height="19" viewBox="0 0 19 19" fill="none" xmlns="http://www.w3.org/2000/svg">
<path d="M14.0566 10.9081C13.8593 11.0993 13.7687 11.3758 13.8136 11.6469L14.4907 15.3941C14.5478 15.7117 14.4138 16.0331 14.148 16.2166C13.8875 16.407 13.541 16.4299 13.2569 16.2775L9.88372 14.5182C9.76644 14.4557 9.6362 14.4222 9.50292 14.4184H9.29652C9.22493 14.4291 9.15486 14.4519 9.09089 14.487L5.71696 16.2547C5.55017 16.3385 5.36129 16.3682 5.17622 16.3385C4.72534 16.2532 4.42451 15.8236 4.49838 15.3705L5.17622 11.6233C5.22115 11.3499 5.13052 11.0719 4.93326 10.8777L2.18309 8.21201C1.95309 7.98886 1.87312 7.65375 1.97822 7.35138C2.08027 7.04978 2.34075 6.82968 2.65529 6.78017L6.44049 6.23105C6.72838 6.20134 6.98123 6.02617 7.1107 5.76722L8.77863 2.34756C8.81823 2.2714 8.86926 2.20133 8.93095 2.14192L8.99949 2.08861C9.03529 2.04901 9.07642 2.01626 9.12211 1.9896L9.20513 1.95914L9.3346 1.90582H9.65524C9.94161 1.93553 10.1937 2.10689 10.3255 2.36279L12.0155 5.76722C12.1373 6.01627 12.3742 6.18916 12.6476 6.23105L16.4328 6.78017C16.7527 6.82587 17.02 7.04674 17.1259 7.35138C17.2256 7.65679 17.1396 7.9919 16.905 8.21201L14.0566 10.9081Z" fill="#F6B76F"/>
</svg>
